<?xml version="1.0" standalone="yes"?>
<svg xmlns="http://www.w3.org/2000/svg" width="900" height="900">
<path style="fill:#8f8dce; stroke:none;" d="M0 0L0 900L900 900L900 0L0 0z"/>
<path style="fill:#ffffff; stroke:none;" d="M598 211.468C592.197 212.555 586.72 215.272 582 218.76C551.47 241.321 561.603 290.768 599 298.985C604.273 300.143 609.677 300.342 615 299.384C651.569 292.803 666.103 246.58 637.911 221.326C632.824 216.769 626.509 213.895 620 212.04C613.502 210.188 604.637 210.224 598 211.468M603 314.428C578.515 317.927 560.268 335.435 556.439 360C554.337 373.485 556 388.359 556 402L556 483L556 558C556 573.214 554.785 588.981 557.619 604C562.273 628.67 587.765 647.987 613 644.711C634.887 641.869 654.42 627.36 659.181 605C662.689 588.531 661 570.741 661 554L661 468L661 396C661 382.207 662.437 367.557 659.547 354C654.346 329.601 627.882 310.873 603 314.428M267 318.428C246.111 321.428 228.606 335.253 222.921 356C219.83 367.276 221 379.422 221 391L221 450C221 481.793 217.941 516.011 227.09 546.83C248.322 618.363 320.696 659.905 393 647.714C407.061 645.344 421.533 639.784 434 632.999C445.387 626.802 454.906 619.711 464.464 610.996C489.776 587.917 505.306 555.912 509.711 522C513.567 492.309 511 460.925 511 431L511 386C511 375.143 511.506 363.421 507.899 353C502.954 338.714 491.658 327.958 478 322.157C448.639 309.688 411.326 328.208 407.286 361C405.764 373.359 407 386.55 407 399L407 472C407 483.149 408.084 494.945 406.575 506C403.645 527.465 386.618 548.183 363 545.829C343.987 543.934 329.61 529.525 326.095 511C323.054 494.974 325 477.276 325 461L325 369C324.988 338.961 297.155 314.098 267 318.428z"/>
</svg>
